<svg width="32" height="33" viewBox="0 0 32 33" fill="none" xmlns="http://www.w3.org/2000/svg">
<rect width="32" height="32" transform="translate(0 0.5)" fill="white"/>
<path d="M24.01 19.88C22.78 19.88 21.59 19.68 20.48 19.32C20.13 19.2 19.74 19.29 19.47 19.56L17.9 21.53C15.07 20.18 12.42 17.63 11.01 14.7L12.96 13.04C13.23 12.76 13.31 12.37 13.2 12.02C12.83 10.91 12.64 9.72 12.64 8.49C12.64 7.95 12.19 7.5 11.65 7.5H8.19C7.65 7.5 7 7.74 7 8.49C7 17.78 14.73 25.5 24.01 25.5C24.72 25.5 25 24.87 25 24.32V20.87C25 20.33 24.55 19.88 24.01 19.88Z" fill="#404040" stroke="#404040" stroke-width="2"/>
</svg>
