<svg width="32" height="33" viewBox="0 0 32 33" fill="none" xmlns="http://www.w3.org/2000/svg">
<rect width="32" height="32" transform="translate(0 0.5)" fill="white"/>
<path d="M19.1093 19.1879L19.0695 19.2277L19.0344 19.2718L17.9321 20.6548C15.7067 19.4162 13.6539 17.4208 12.3762 15.1451L13.7738 13.9553L13.8112 13.9234L13.8454 13.888C14.3857 13.3277 14.5452 12.5425 14.3262 11.8457L14.3236 11.8375L14.3209 11.8293C13.976 10.7946 13.7967 9.67868 13.7967 8.5175C13.7967 7.41021 12.8865 6.5 11.7792 6.5H8.22306C7.82251 6.5 7.30132 6.58507 6.84766 6.88833C6.34127 7.22685 6 7.78914 6 8.5175C6 18.6182 14.3928 27 24.4825 27C25.1925 27 25.7445 26.6631 26.0835 26.18C26.3939 25.7376 26.5 25.218 26.5 24.7872V21.2414C26.5 20.1341 25.5898 19.2239 24.4825 19.2239C23.3293 19.2239 22.2124 19.0368 21.1694 18.6992C20.4451 18.4549 19.6501 18.6471 19.1093 19.1879Z" stroke="#A3A3A3" stroke-width="2"/>
</svg>
