<svg width="24" height="24" viewBox="0 0 24 24" fill="none" xmlns="http://www.w3.org/2000/svg">
<path d="M14.0625 13.7436L14.0267 13.7794L13.9951 13.8191L13.237 14.7702C11.6494 13.8607 10.1879 12.4376 9.25165 10.8176L10.2189 9.9942L10.2527 9.96549L10.2834 9.93361C10.73 9.47052 10.8617 8.82125 10.6808 8.24571L10.6785 8.23831L10.676 8.23095C10.4201 7.46315 10.2867 6.63398 10.2867 5.77C10.2867 4.85294 9.53372 4.1 8.61667 4.1H5.92556C5.60482 4.1 5.17954 4.16773 4.80511 4.41803C4.38322 4.70006 4.1 5.16969 4.1 5.77C4.1 13.493 10.5155 19.9 18.23 19.9C18.8168 19.9 19.2771 19.62 19.5588 19.2185C19.8148 18.8536 19.9 18.4294 19.9 18.0822V15.3989C19.9 14.4818 19.1471 13.7289 18.23 13.7289C17.3731 13.7289 16.5431 13.5899 15.7677 13.3391C15.1675 13.1369 14.5094 13.2967 14.0625 13.7436Z" stroke="#737373" stroke-width="1.8"/>
</svg>
